/* Precomputed frequencies for MIDI notes 0–127 (C-1 to G9) */
    8.1757989156f,   /* 0: C-1 */
    8.6619572180f,   /* 1: C#-1/Db-1 */
    9.1770239974f,   /* 2: D-1 */
    9.7227182413f,   /* 3: D#-1/Eb-1 */
    10.3008611535f,   /* 4: E-1 */
    10.9133822323f,   /* 5: F-1 */
    11.5623257097f,   /* 6: F#-1/Gb-1 */
    12.2498573744f,   /* 7: G-1 */
    12.9782717994f,   /* 8: G#-1/Ab-1 */
    13.7500000000f,   /* 9: A-1 */
    14.5676175474f,   /* 10: A#-1/Bb-1 */
    15.4338531643f,   /* 11: B-1 */
    16.3515978313f,   /* 12: C0 */
    17.3239144361f,   /* 13: C#0/Db0 */
    18.3540479948f,   /* 14: D0 */
    19.4454364826f,   /* 15: D#0/Eb0 */
    20.6017223071f,   /* 16: E0 */
    21.8267644646f,   /* 17: F0 */
    23.1246514195f,   /* 18: F#0/Gb0 */
    24.4997147489f,   /* 19: G0 */
    25.9565435987f,   /* 20: G#0/Ab0 */
    27.5000000000f,   /* 21: A0 */
    29.1352350949f,   /* 22: A#0/Bb0 */
    30.8677063285f,   /* 23: B0 */
    32.7031956626f,   /* 24: C1 */
    34.6478288721f,   /* 25: C#1/Db1 */
    36.7080959897f,   /* 26: D1 */
    38.8908729653f,   /* 27: D#1/Eb1 */
    41.2034446141f,   /* 28: E1 */
    43.6535289291f,   /* 29: F1 */
    46.2493028390f,   /* 30: F#1/Gb1 */
    48.9994294977f,   /* 31: G1 */
    51.9130871975f,   /* 32: G#1/Ab1 */
    55.0000000000f,   /* 33: A1 */
    58.2704701898f,   /* 34: A#1/Bb1 */
    61.7354126570f,   /* 35: B1 */
    65.4063913251f,   /* 36: C2 */
    69.2956577442f,   /* 37: C#2/Db2 */
    73.4161919794f,   /* 38: D2 */
    77.7817459305f,   /* 39: D#2/Eb2 */
    82.4068892282f,   /* 40: E2 */
    87.3070578583f,   /* 41: F2 */
    92.4986056779f,   /* 42: F#2/Gb2 */
    97.9988589954f,   /* 43: G2 */
    103.8261743950f,   /* 44: G#2/Ab2 */
    110.0000000000f,   /* 45: A2 */
    116.5409403795f,   /* 46: A#2/Bb2 */
    123.4708253140f,   /* 47: B2 */
    130.8127826503f,   /* 48: C3 */
    138.5913154884f,   /* 49: C#3/Db3 */
    146.8323839587f,   /* 50: D3 */
    155.5634918610f,   /* 51: D#3/Eb3 */
    164.8137784564f,   /* 52: E3 */
    174.6141157165f,   /* 53: F3 */
    184.9972113558f,   /* 54: F#3/Gb3 */
    195.9977179909f,   /* 55: G3 */
    207.6523487900f,   /* 56: G#3/Ab3 */
    220.0000000000f,   /* 57: A3 */
    233.0818807590f,   /* 58: A#3/Bb3 */
    246.9416506281f,   /* 59: B3 */
    261.6255653006f,   /* 60: C4 */
    277.1826309769f,   /* 61: C#4/Db4 */
    293.6647679174f,   /* 62: D4 */
    311.1269837221f,   /* 63: D#4/Eb4 */
    329.6275569129f,   /* 64: E4 */
    349.2282314330f,   /* 65: F4 */
    369.9944227116f,   /* 66: F#4/Gb4 */
    391.9954359817f,   /* 67: G4 */
    415.3046975799f,   /* 68: G#4/Ab4 */
    440.0000000000f,   /* 69: A4 */
    466.1637615181f,   /* 70: A#4/Bb4 */
    493.8833012561f,   /* 71: B4 */
    523.2511306012f,   /* 72: C5 */
    554.3652619537f,   /* 73: C#5/Db5 */
    587.3295358348f,   /* 74: D5 */
    622.2539674442f,   /* 75: D#5/Eb5 */
    659.2551138257f,   /* 76: E5 */
    698.4564628660f,   /* 77: F5 */
    739.9888454233f,   /* 78: F#5/Gb5 */
    783.9908719635f,   /* 79: G5 */
    830.6093951599f,   /* 80: G#5/Ab5 */
    880.0000000000f,   /* 81: A5 */
    932.3275230362f,   /* 82: A#5/Bb5 */
    987.7666025122f,   /* 83: B5 */
    1046.5022612024f,   /* 84: C6 */
    1108.7305239075f,   /* 85: C#6/Db6 */
    1174.6590716696f,   /* 86: D6 */
    1244.5079348883f,   /* 87: D#6/Eb6 */
    1318.5102276515f,   /* 88: E6 */
    1396.9129257320f,   /* 89: F6 */
    1479.9776908465f,   /* 90: F#6/Gb6 */
    1567.9817439270f,   /* 91: G6 */
    1661.2187903198f,   /* 92: G#6/Ab6 */
    1760.0000000000f,   /* 93: A6 */
    1864.6550460724f,   /* 94: A#6/Bb6 */
    1975.5332050245f,   /* 95: B6 */
    2093.0045224048f,   /* 96: C7 */
    2217.4610478150f,   /* 97: C#7/Db7 */
    2349.3181433393f,   /* 98: D7 */
    2489.0158697766f,   /* 99: D#7/Eb7 */
    2637.0204553030f,   /* 100: E7 */
    2793.8258514640f,   /* 101: F7 */
    2959.9553816931f,   /* 102: F#7/Gb7 */
    3135.9634878540f,   /* 103: G7 */
    3322.4375806396f,   /* 104: G#7/Ab7 */
    3520.0000000000f,   /* 105: A7 */
    3729.3100921447f,   /* 106: A#7/Bb7 */
    3951.0664100490f,   /* 107: B7 */
    4186.0090448096f,   /* 108: C8 */
    4434.9220956300f,   /* 109: C#8/Db8 */
    4698.6362866785f,   /* 110: D8 */
    4978.0317395533f,   /* 111: D#8/Eb8 */
    5274.0409106059f,   /* 112: E8 */
    5587.6517029281f,   /* 113: F8 */
    5919.9107633862f,   /* 114: F#8/Gb8 */
    6271.9269757080f,   /* 115: G8 */
    6644.8751612791f,   /* 116: G#8/Ab8 */
    7040.0000000000f,   /* 117: A8 */
    7458.6201842894f,   /* 118: A#8/Bb8 */
    7902.1328200980f,   /* 119: B8 */
    8372.0180896192f,   /* 120: C9 */
    8869.8441912599f,   /* 121: C#9/Db9 */
    9397.2725733570f,   /* 122: D9 */
    9956.0634791066f,   /* 123: D#9/Eb9 */
    10548.0818212118f,   /* 124: E9 */
    11175.3034058561f,   /* 125: F9 */
    11839.8215267723f,   /* 126: F#9/Gb9 */
    12543.8539514160f,   /* 127: G9 */
